<?xml version="1.0" encoding="UTF-8" standalone="no"?>
<!DOCTYPE svg PUBLIC "-//W3C//DTD SVG 1.1//EN" "http://www.w3.org/Graphics/SVG/1.1/DTD/svg11.dtd">
<svg width="100%" height="100%" viewBox="0 0 1050 1230" version="1.1" xmlns="http://www.w3.org/2000/svg" xmlns:xlink="http://www.w3.org/1999/xlink" xml:space="preserve" xmlns:serif="http://www.serif.com/" style="fill-rule:evenodd;clip-rule:evenodd;stroke-linejoin:round;stroke-miterlimit:2;">
    <g transform="matrix(4.16667,0,0,4.16667,0,0)">
        <g id="Livello-1" serif:id="Livello 1">
            <g transform="matrix(0.21,-0.120622,1.34607e-17,0.278564,-126,-213.759)">
                <rect x="1200" y="1818.65" width="600" height="519.615"/>
            </g>
            <g transform="matrix(0.168631,-0.0968597,1.0809e-17,0.223688,-76.3569,-142.473)">
                <rect x="1200" y="1818.65" width="600" height="519.615" style="fill:rgb(50,154,80);"/>
            </g>
            <g transform="matrix(0.21,0.120622,-1.34607e-17,0.278564,-126,-213.759)">
                <rect x="600" y="779.423" width="600" height="519.615"/>
            </g>
            <g transform="matrix(0.168631,0.0968597,-1.0809e-17,0.223688,-76.3569,-142.473)">
                <rect x="600" y="779.423" width="600" height="519.615" style="fill:rgb(16,121,46);"/>
            </g>
            <g transform="matrix(0.21,-0.120622,0.242487,0.139282,-126,-213.759)">
                <rect x="-900" y="1299.04" width="600" height="519.615"/>
            </g>
            <g transform="matrix(0.168631,-0.0968597,0.194718,0.111844,-76.3569,-142.473)">
                <rect x="-900" y="1299.04" width="600" height="519.615" style="fill:rgb(45,167,80);"/>
            </g>
            <g id="path11522" transform="matrix(0.174646,-0.100315,9.89215e-18,0.204714,147.665,156.571)">
                <path d="M196.595,288.808L238.829,213.042L239.03,240.752L327.914,240.551C343.797,238.867 357.721,232.411 367.805,220.271C335.622,286.105 326.352,332.687 259.578,332.715L239.03,332.715L238.829,363.503L196.595,288.808ZM94.86,333.384C47.339,318.933 25.167,260.388 3.432,219.133C13.394,228.19 32.037,241.155 42.865,241.156C63.632,241.205 84.4,241.243 105.167,241.287L168.083,241.287L167.882,333.117L167.681,333.385L94.86,333.384ZM0,195.143L30.372,133.197L0.755,116.929L89.505,116.929L132.408,194.837L103.313,177.415C93.98,197.122 84.648,216.828 75.316,236.535C64.576,236.347 53.836,236.159 43.095,235.971C22.153,231.089 7.583,214.608 0,195.143ZM296.591,235.598L257.369,163.312L336.615,115.323L374.967,192.16C376.128,210.548 346.439,236.136 328.012,235.937L296.591,235.598ZM64.607,66.463L105.095,5.783C144.365,-8.842 167.112,22.732 181.469,42.635L143.318,115.858L64.607,66.463ZM218.013,99.125C209.87,79.927 198.989,57.967 185.383,38.873C173.202,21.779 158.484,6.864 147.334,0.201L249.739,0C268.129,1.651 277.065,12.373 286.819,27.04L301.543,52.943L324.3,38.419L281.464,114.72L189.099,114.921L218.013,99.125Z" style="fill-rule:nonzero;"/>
            </g>
            <g transform="matrix(0.242487,0,0,0.241244,-369.289,-197.556)">
                <ellipse cx="2041.28" cy="1178.51" rx="140.009" ry="108.412"/>
            </g>
            <g transform="matrix(0.243187,0,0,0.315375,-367.821,-195.075)">
                <ellipse cx="2030.62" cy="873.302" rx="146.228" ry="79.671" style="fill:rgb(45,167,80);"/>
            </g>
        </g>
    </g>
</svg>
